<svg width="250" height="250" xmlns="http://www.w3.org/2000/svg" xmlns:svg="http://www.w3.org/2000/svg" xmlns:xlink="http://www.w3.org/1999/xlink">
 <!-- Created with SVG-edit - http://svg-edit.googlecode.com/ -->
 <defs>
  <symbol id="svg_46" viewBox="0 0 512 512" xmlns="http://www.w3.org/2000/svg" xmlns:xlink="http://www.w3.org/1999/xlink">
   <circle id="svg_1" cx="421.16" cy="90.84" r="90.84" fill="#4B3F4E"/>
   <circle id="svg_2" cx="421.16" cy="90.84" r="57.806" fill="#6F6571"/>
   <circle id="svg_3" cx="90.84" cy="90.84" r="90.84" fill="#4B3F4E"/>
   <circle id="svg_6" cx="90.84" cy="90.84" r="57.806" fill="#6F6571"/>
   <ellipse id="svg_7" cx="256" cy="280.77" rx="239.48" ry="231.23" fill="#EDEBED"/>
   <ellipse id="svg_8" transform="matrix(0.5 0.866 -0.866 0.5 433.1796 -178.0299)" cx="370.771" cy="286.135" rx="82.578" ry="70.148" fill="#4B3F4E"/>
   <path id="svg_9" d="m90.838997,272.515991c0,-91.778 45.208,-172.233002 113.089989,-217.421997c-107.213989,22.963005 -187.412979,115.251999 -187.412979,225.679993c0,124.144989 101.337997,225.410004 228.498001,230.957977c-90.127014,-36.751953 -154.175018,-129.963959 -154.175018,-239.215973l0.000008,0z" fill="#DBD9DC"/>
   <path id="svg_11" d="m355.096985,305.548004l0,0c-13.682007,0 -24.773987,-11.09201 -24.773987,-24.773987l0,-8.258026c0,-13.681976 11.09198,-24.773987 24.773987,-24.773987l0,0c13.682007,0 24.773987,11.09201 24.773987,24.773987l0,8.258026c0.000031,13.682983 -11.09198,24.773987 -24.773987,24.773987z" fill="#5D5360"/>
   <path id="svg_12" d="m355.096985,247.742004l0,28.902985c0,6.841003 5.54599,12.387024 12.386993,12.387024s12.386993,-5.546021 12.386993,-12.387024l0,-4.128998c0.000031,-13.681976 -11.09198,-24.773987 -24.773987,-24.773987z" fill="#6F6571"/>
   <g id="svg_13">
    <circle id="svg_14" cx="355.1" cy="264.26" r="8.258" fill="#FFFFFF"/>
    <path id="svg_15" d="m338.580994,404.644989c0,-18.243011 -22.595001,-33.032013 -50.466003,-33.032013c-12.200989,0 -23.389008,2.835022 -32.115005,7.551025c-8.725998,-4.716003 -19.913986,-7.551025 -32.11499,-7.551025c-27.871002,0 -50.466003,14.789001 -50.466003,33.032013c0,10.966003 8.197998,20.656006 20.763992,26.664001c1.251007,26.481995 28.408005,47.658997 61.817001,47.658997s60.565994,-21.177002 61.817001,-47.658997c12.56601,-6.007996 20.764008,-15.697998 20.764008,-26.664001z" fill="#FFFFFF"/>
   </g>
   <path id="svg_16" d="m297.290009,371.613007c0,13.682007 -18.485992,33.032013 -41.290009,33.032013s-41.289993,-19.350006 -41.289993,-33.032013s18.486008,-24.773987 41.289993,-24.773987s41.290009,11.090973 41.290009,24.773987z" fill="#5D5360"/>
   <path id="svg_17" d="m338.419006,403.023987c-0.882996,-4.415009 -5.157013,-7.234009 -9.565002,-6.431c-4.434998,0.809998 -7.386993,5.096985 -6.652985,9.544006c0.039978,0.25 0.959991,6.209991 -3.734009,11.069c-4.024017,4.169006 -15.371002,10.565002 -45.972015,6.596985c-2.737976,-0.35498 -5.485992,-0.621002 -8.237976,-0.798004l0,-20.836975c0,-4.559998 -3.697998,-5.779999 -8.258011,-5.779999s-8.257996,1.218994 -8.257996,5.779999l0,20.836975c-2.753006,0.177002 -5.5,0.443024 -8.238007,0.798004c-30.604996,3.968018 -41.947998,-2.427002 -45.972,-6.596985c-4.694,-4.859009 -3.774002,-10.819 -3.757996,-10.940002c0.894989,-4.476013 -2.003998,-8.822998 -6.475998,-9.718018c-4.504013,-0.886993 -8.827011,2.003998 -9.718002,6.476013c-1.040009,5.209991 -0.589005,16.390991 7.709991,25.273987c8.246002,8.827026 21.867004,13.266022 40.625,13.266022c6.040009,0 12.621002,-0.460022 19.718002,-1.382996c9.531998,-1.242004 19.202011,-1.242004 28.733994,0c29.128998,3.789978 49.434998,-0.21402 60.343018,-11.883026c8.298981,-8.882965 8.750977,-20.063965 7.709991,-25.273987z" fill="#6F6571"/>
   <g id="svg_18">
    <path id="svg_19" d="m272.515991,396.386993c-22.804001,0 -41.290009,-22.114014 -41.290009,-37.751007c0,-2.636993 0.695007,-5.138977 1.678009,-7.561005c-10.977005,4.453003 -18.195007,11.989014 -18.195007,20.538025c0,13.681976 18.486008,33.031982 41.290009,33.031982c10.503998,0 19.984009,-4.188995 27.272003,-9.954987c-3.43399,1.057007 -7.027985,1.696991 -10.755005,1.696991z" fill="#4B3F4E"/>
    <ellipse id="svg_20" transform="matrix(0.5 -0.866 0.866 0.5 -177.1563 265.3817)" cx="141.253" cy="286.115" rx="82.578" ry="70.148" fill="#4B3F4E"/>
   </g>
   <path id="svg_21" d="m156.903,305.548004l0,0c-13.682007,0 -24.774002,-11.09201 -24.774002,-24.773987l0,-8.258026c0,-13.681976 11.091995,-24.773987 24.774002,-24.773987l0,0c13.682007,0 24.774002,11.09201 24.774002,24.773987l0,8.258026c0,13.682983 -11.091003,24.773987 -24.774002,24.773987z" fill="#5D5360"/>
   <path id="svg_22" d="m156.903,247.742004l0,28.902985c0,6.841003 5.546005,12.387024 12.386993,12.387024c6.841003,0 12.387009,-5.546021 12.387009,-12.387024l0,-4.128998c0,-13.681976 -11.091003,-24.773987 -24.774002,-24.773987z" fill="#6F6571"/>
   <circle id="svg_23" cx="156.9" cy="264.26" r="8.258" fill="#FFFFFF"/>
   <g id="svg_24"/>
   <g id="svg_25"/>
   <g id="svg_26"/>
   <g id="svg_27"/>
   <g id="svg_28"/>
   <g id="svg_29"/>
   <g id="svg_30"/>
   <g id="svg_31"/>
   <g id="svg_32"/>
   <g id="svg_33"/>
   <g id="svg_34"/>
   <g id="svg_35"/>
   <g id="svg_36"/>
   <g id="svg_37"/>
   <g id="svg_38"/>
  </symbol>
 </defs>
 <g>
  <title>Layer 1</title>
  <rect id="svg_5" height="250.999991" width="250.000008" x="0.999992" stroke-width="0" fill="#24a3d9" stroke="#000000" y="0"/>
  <g id="svg_4"/>
  <g id="svg_10"/>
  <use id="svg_47" xlink:href="#svg_46" transform="matrix(0.578698 0 0 0.597399 -259.913 -275.558)" y="545.503275" x="540.136212"/>
  <g id="svg_48"/>
 </g>
</svg>