<svg xmlns="http://www.w3.org/2000/svg" width="96" height="96" viewBox="0 0 96 96">
    <defs>
        <filter id="a" width="101.7%" height="109.2%" x="-.6%" y="-3.3%" filterUnits="objectBoundingBox">
            <feOffset dx="2" dy="2" in="SourceAlpha" result="shadowOffsetOuter1"/>
            <feGaussianBlur in="shadowOffsetOuter1" result="shadowBlurOuter1" stdDeviation="2"/>
            <feColorMatrix in="shadowBlurOuter1" result="shadowMatrixOuter1" values="0 0 0 0 0.8 0 0 0 0 0.8 0 0 0 0 0.8 0 0 0 0.5 0"/>
            <feMerge>
                <feMergeNode in="shadowMatrixOuter1"/>
                <feMergeNode in="SourceGraphic"/>
            </feMerge>
        </filter>
    </defs>
    <g fill="none" fill-rule="evenodd" filter="url(#a)" transform="translate(2 2)">
        <circle cx="44" cy="44" r="44" fill="#E04B5D"/>
        <g fill-rule="nonzero" transform="translate(21 20)">
            <path fill="#FFC850" d="M41.279.35c1.022-.824 2.55-.102 2.55 1.206V22.37L26.627 12.273 41.28.35z"/>
            <path fill="#EBAF4B" d="M42.265 21.452l-10.473-6.148 8.726-9.772c.61-.684 1.747-.255 1.747.658v15.262z"/>
            <path fill="#FFC850" d="M5.721.35C4.7-.473 3.171.249 3.171 1.557V22.37l17.201-10.097L5.722.35z"/>
            <path fill="#EBAF4B" d="M4.735 21.452l10.473-6.148-8.726-9.772c-.61-.684-1.747-.255-1.747.658v15.262z"/>
            <ellipse cx="23.5" cy="27.418" fill="#FFDC64" rx="21.893" ry="20.582"/>
            <path fill="#FF8087" d="M26.627 40.233v1.554c0 1.715-1.4 3.106-3.127 3.106-1.727 0-3.128-1.39-3.128-3.106v-1.554L23.5 38.68l3.127 1.553z"/>
            <path fill="#5D5360" d="M25.226 32.237h-3.453c-.745 0-1.158.859-.69 1.434l1.727 2.122a.89.89 0 0 0 1.38 0l1.726-2.122c.469-.575.056-1.434-.69-1.434z"/>
            <g fill="#E1A546">
                <path d="M44.61 41.01a.783.783 0 0 1-.36-.088c-4.728-2.442-12.127-3.893-12.201-3.907a.777.777 0 1 1 .299-1.525c.311.06 7.693 1.508 12.623 4.054a.774.774 0 0 1 .333 1.048.783.783 0 0 1-.694.418zM46.175 35.574a.786.786 0 0 1-.204-.027c-4.382-1.17-12.351-.948-12.43-.945a.775.775 0 0 1-.805-.753.779.779 0 0 1 .758-.8c.336-.01 8.28-.232 12.883.997a.776.776 0 0 1-.202 1.528z"/>
            </g>
            <path fill="#FFC850" d="M28.973 46.447c-12.09 0-21.892-9.215-21.892-20.582 0-8.347 5.288-15.528 12.884-18.758C9.555 8.697 1.607 17.183 1.607 27.418 1.607 38.785 11.41 48 23.5 48c3.212 0 6.26-.656 9.008-1.824-1.151.175-2.331.27-3.535.27z"/>
            <g fill="#E1A546">
                <path d="M2.39 41.01a.782.782 0 0 1-.694-.418c-.2-.381-.05-.85.332-1.048 4.93-2.546 12.312-3.993 12.624-4.054a.777.777 0 0 1 .3 1.525c-.075.014-7.474 1.465-12.202 3.907a.783.783 0 0 1-.36.088zM.825 35.574a.777.777 0 0 1-.203-1.527c4.604-1.23 12.547-1.007 12.884-.998.431.013.77.371.758.8a.786.786 0 0 1-.805.753c-.08-.003-8.05-.226-12.43.945a.788.788 0 0 1-.204.027z"/>
            </g>
            <path fill="#4B3F4E" d="M14.508 30.137c-1.505 0-2.736-1.224-2.736-2.719v-1.553c0-1.495 1.231-2.719 2.736-2.719 1.506 0 2.737 1.224 2.737 2.719v1.553c0 1.495-1.231 2.719-2.737 2.719z"/>
            <path fill="#5D5360" d="M14.508 23.146c-.133 0-.262.021-.39.04v3.844c0 .858.7 1.553 1.563 1.553.864 0 1.564-.695 1.564-1.553v-1.165c0-1.495-1.232-2.719-2.737-2.719z"/>
            <ellipse cx="14.509" cy="25.088" fill="#FFF" rx="1.173" ry="1.165"/>
            <path fill="#4B3F4E" d="M32.491 30.137c-1.505 0-2.736-1.224-2.736-2.719v-1.553c0-1.495 1.231-2.719 2.736-2.719 1.506 0 2.737 1.224 2.737 2.719v1.553c0 1.495-1.231 2.719-2.737 2.719z"/>
            <path fill="#5D5360" d="M32.491 23.146c-.133 0-.262.021-.39.04v3.844c0 .858.7 1.553 1.563 1.553.864 0 1.564-.695 1.564-1.553v-1.165c0-1.495-1.231-2.719-2.737-2.719z"/>
            <ellipse cx="32.491" cy="25.088" fill="#FFF" rx="1.173" ry="1.165"/>
            <path fill="#4B3F4E" d="M24.105 35.827l-1.727-3.396c-.031-.061-.049-.129-.072-.194h-.533c-.745 0-1.158.858-.69 1.434l1.727 2.122a.88.88 0 0 0 1.309.055c-.005-.008-.01-.013-.014-.021z"/>
            <path fill="#E6646E" d="M23.5 38.68l-3.128 1.553v1.554c0 .246.037.483.091.713a7.08 7.08 0 0 0 2.255-.67v.733c0 .43.35.777.782.777a.78.78 0 0 0 .782-.777v-.734a7.08 7.08 0 0 0 2.255.67c.054-.23.09-.466.09-.712v-1.554L23.5 38.68z"/>
            <path fill="#EBAF4B" d="M27.41 41.01a5.464 5.464 0 0 1-3.082-.944 1.506 1.506 0 0 0-1.656 0 5.462 5.462 0 0 1-3.081.944 5.483 5.483 0 0 1-3.65-1.392.774.774 0 0 1-.06-1.097.786.786 0 0 1 1.104-.06c1.313 1.17 3.368 1.298 4.805.322a3.07 3.07 0 0 1 3.42 0c1.437.976 3.492.848 4.805-.322a.785.785 0 0 1 1.104.06c.288.32.261.81-.06 1.097a5.482 5.482 0 0 1-3.65 1.392z"/>
        </g>
    </g>
</svg>
