<svg width="250" height="250" xmlns="http://www.w3.org/2000/svg" xmlns:svg="http://www.w3.org/2000/svg" xmlns:xlink="http://www.w3.org/1999/xlink">
 <!-- Created with SVG-edit - http://svg-edit.googlecode.com/ -->
 <defs>
  <symbol id="svg_50" viewBox="0 0 512 512" xmlns="http://www.w3.org/2000/svg" xmlns:xlink="http://www.w3.org/1999/xlink">
   <path id="svg_1" d="m444.378998,3.741c10.828003,-8.798 27.018005,-1.092 27.018005,12.859l0,222.01l-182.26001,-107.699005l155.242004,-127.170004l0,0.000009z" fill="#FFC850"/>
   <path id="svg_2" d="m454.828003,228.819l-110.972992,-65.57399l92.461975,-104.241005c6.465027,-7.288002 18.511017,-2.716 18.511017,7.027l0,162.787994z" fill="#EBAF4B"/>
   <path id="svg_3" d="m67.619003,3.741c-10.829002,-8.798 -27.018002,-1.092 -27.018002,12.859l0,222.01l182.259991,-107.699005l-155.241989,-127.170004l0,0.000009z" fill="#FFC850"/>
   <path id="svg_6" d="m57.169998,228.819l110.973007,-65.57399l-92.462006,-104.241013c-6.464996,-7.287998 -18.511002,-2.716 -18.511002,7.027c0,0 0,162.787987 0,162.787987l0,0.000015z" fill="#EBAF4B"/>
   <ellipse id="svg_7" cx="255.999" cy="292.46" rx="231.97" ry="219.54" fill="#FFDC64"/>
   <path id="svg_8" d="m289.136993,429.154999l0,16.569c0,18.302002 -14.835999,33.138 -33.138,33.138l0,0c-18.302002,0 -33.138,-14.835999 -33.138,-33.138l0,-16.569l33.138,-16.569l33.138,16.569z" fill="#FF8087"/>
   <path id="svg_9" d="m274.292999,343.862l-36.587997,0c-7.899002,0 -12.27301,9.157013 -7.307007,15.299988l18.294998,22.634003c3.76001,4.651001 10.85199,4.651001 14.613007,0l18.295013,-22.634003c4.964996,-6.142975 0.59198,-15.299988 -7.308014,-15.299988z" fill="#5D5360"/>
   <g id="svg_11">
    <path id="svg_12" d="m479.673004,437.438995c-1.286011,0 -2.592987,-0.299011 -3.815002,-0.93399c-50.09201,-26.046997 -128.490997,-41.524017 -129.279999,-41.678009c-4.48999,-0.873993 -7.419006,-5.226013 -6.544983,-9.71701c0.877991,-4.493988 5.185974,-7.427002 9.71698,-6.544983c3.300995,0.643005 81.515015,16.075989 133.753998,43.238983c4.057007,2.112 5.639008,7.110992 3.527008,11.173004c-1.476013,2.835999 -4.364014,4.462006 -7.358002,4.462006z" fill="#E1A546"/>
    <path id="svg_13" d="m496.255005,379.450989c-0.712006,0 -1.436005,-0.092987 -2.156006,-0.286987c-46.434998,-12.483002 -130.869995,-10.113007 -131.703003,-10.077026c-4.652008,0.134003 -8.39798,-3.458984 -8.531006,-8.029999c-0.138,-4.574982 3.459015,-8.393982 8.029999,-8.530975c3.560028,-0.113007 87.736023,-2.476013 136.509003,10.634979c4.417023,1.188995 7.035004,5.731995 5.848999,10.153015c-0.996002,3.697998 -4.341003,6.132996 -7.997986,6.136993z" fill="#E1A546"/>
   </g>
   <path id="svg_14" d="m313.990997,495.431c-128.112,0 -231.966995,-98.291016 -231.966995,-219.540009c0,-89.034988 56.033997,-165.633987 136.518005,-200.080978c-110.294006,16.951988 -194.51001,107.474991 -194.51001,216.649979c0,121.249023 103.855003,219.540009 231.966995,219.540009c34.036987,0 66.328003,-6.994995 95.449005,-19.459015c-12.197998,1.875 -24.700012,2.890015 -37.457001,2.890015z" fill="#FFC850"/>
   <g id="svg_15">
    <path id="svg_16" d="m32.324001,437.438995c-2.993,0 -5.882,-1.622009 -7.358,-4.462006c-2.112,-4.061005 -0.529999,-9.061005 3.527,-11.173004c52.24,-27.162994 130.452997,-42.595978 133.753992,-43.238983c4.494003,-0.902008 8.839005,2.054993 9.71701,6.544983c0.873993,4.490021 -2.055008,8.843018 -6.544998,9.71701c-0.789001,0.153992 -79.189003,15.631012 -129.279995,41.678009c-1.222,0.63501 -2.528,0.93399 -3.814999,0.93399l-0.000011,0z" fill="#E1A546"/>
    <path id="svg_17" d="m15.743,379.450989c-3.657,0 -7.002,-2.438995 -7.997,-6.136993c-1.185,-4.421021 1.432002,-8.96402 5.849,-10.153015c48.777001,-13.11499 132.940995,-10.735992 136.509004,-10.634979c4.570999,0.138 8.166992,3.955994 8.029999,8.530975c-0.138,4.571014 -4.098007,8.196014 -8.531006,8.029999c-0.848999,-0.027985 -85.296989,-2.406982 -131.703005,10.077026c-0.720999,0.194 -1.445,0.286987 -2.157,0.286987l0.000008,0z" fill="#E1A546"/>
   </g>
   <path id="svg_18" d="m160.727005,321.455994l0,0c-15.947998,0 -28.996002,-13.048004 -28.996002,-28.996002l0,-16.569c0,-15.947998 13.048004,-28.996002 28.996002,-28.996002l0,0c15.947998,0 28.996002,13.048004 28.996002,28.996002l0,16.569c0,15.947021 -13.048004,28.996002 -28.996002,28.996002z" fill="#4B3F4E"/>
   <path id="svg_19" d="m160.727005,246.895004c-1.417999,0 -2.778,0.220993 -4.141998,0.421005l0,41.001984c0,9.151001 7.417999,16.569 16.569,16.569s16.569,-7.417999 16.569,-16.569l0,-12.427002c0,-15.947998 -13.049011,-28.995987 -28.996002,-28.995987z" fill="#5D5360"/>
   <circle id="svg_20" cx="160.729" cy="267.61" r="12.427" fill="#FFFFFF"/>
   <path id="svg_21" d="m351.270996,321.455994l0,0c-15.947998,0 -28.996002,-13.048004 -28.996002,-28.996002l0,-16.569c0,-15.947998 13.048004,-28.996002 28.996002,-28.996002l0,0c15.947998,0 28.996002,13.048004 28.996002,28.996002l0,16.569c0,15.947021 -13.048004,28.996002 -28.996002,28.996002z" fill="#4B3F4E"/>
   <path id="svg_22" d="m351.270996,246.895004c-1.417999,0 -2.778015,0.220993 -4.141998,0.421005l0,41.001984c0,9.151001 7.417999,16.569 16.569,16.569s16.569,-7.417999 16.569,-16.569l0,-12.427002c0,-15.947998 -13.048004,-28.995987 -28.996002,-28.995987z" fill="#5D5360"/>
   <circle id="svg_23" cx="351.269" cy="267.61" r="12.427" fill="#FFFFFF"/>
   <path id="svg_24" d="m262.40799,382.149994l-18.294998,-36.214996c-0.332001,-0.65799 -0.518005,-1.377991 -0.768997,-2.074005l-5.639008,0c-7.899002,0 -12.272995,9.157013 -7.307999,15.299988l18.294998,22.634003c3.550003,4.390015 9.981018,4.485016 13.863007,0.587006c-0.044006,-0.084991 -0.10199,-0.142975 -0.147003,-0.231995z" fill="#4B3F4E"/>
   <path id="svg_25" d="m255.998993,412.585999l-33.138,16.569l0,16.569c0,2.628998 0.382996,5.153992 0.960999,7.605988c8.337006,-1.033997 16.389008,-3.448975 23.891998,-7.152985l0,7.830994c0,4.575012 3.709,8.285004 8.285004,8.285004c4.575989,0 8.285004,-3.709015 8.285004,-8.285004l0,-7.829987c7.503998,3.703979 15.556,6.118988 23.891998,7.151978c0.578003,-2.451996 0.960999,-4.977997 0.960999,-7.605988l0,-16.569l-33.138,-16.569z" fill="#E6646E"/>
   <path id="svg_26" d="m297.421997,437.438995c-11.718994,0 -23.013,-3.483002 -32.653015,-10.072998c-5.161987,-3.527008 -12.373978,-3.527008 -17.543991,0c-9.635986,6.589996 -20.929993,10.072998 -32.648987,10.072998c-14.259003,0 -27.993011,-5.274994 -38.672012,-14.850006c-3.405991,-3.057983 -3.688995,-8.296997 -0.634995,-11.703003s8.281006,-3.688995 11.703003,-0.634979c13.910995,12.483002 35.682999,13.846985 50.904999,3.43399c10.841003,-7.403015 25.408005,-7.403015 36.241013,0c15.225983,10.40799 37.000977,9.040985 50.912994,-3.429993c3.401978,-3.050018 8.635986,-2.775024 11.699005,0.638977c3.053986,3.406006 2.766998,8.64502 -0.639008,11.699005c-10.681,9.575012 -24.410004,14.846008 -38.669006,14.846008z" fill="#EBAF4B"/>
   <g id="svg_27"/>
   <g id="svg_28"/>
   <g id="svg_29"/>
   <g id="svg_30"/>
   <g id="svg_31"/>
   <g id="svg_32"/>
   <g id="svg_33"/>
   <g id="svg_34"/>
   <g id="svg_35"/>
   <g id="svg_36"/>
   <g id="svg_37"/>
   <g id="svg_38"/>
   <g id="svg_39"/>
   <g id="svg_40"/>
   <g id="svg_41"/>
  </symbol>
 </defs>
 <g>
  <title>Layer 1</title>
  <rect id="svg_5" height="250.999991" width="250.000008" x="0.999992" stroke-width="0" fill="#de4d60" stroke="#000000" y="0"/>
  <g id="svg_4"/>
  <g id="svg_10"/>
  <g id="svg_48"/>
  <g id="svg_52"/>
  <use xlink:href="#svg_50" transform="matrix(0.573348 0 0 0.573348 -316.948 -286.59)" y="592.871166" x="645.820041" id="svg_51"/>
 </g>
</svg>