<svg width="250" height="250" xmlns="http://www.w3.org/2000/svg" xmlns:svg="http://www.w3.org/2000/svg" xmlns:xlink="http://www.w3.org/1999/xlink">
 <!-- Created with SVG-edit - http://svg-edit.googlecode.com/ -->
 <defs>
  <symbol id="svg_60" viewBox="0 0 512.002 512.002" xmlns="http://www.w3.org/2000/svg" xmlns:xlink="http://www.w3.org/1999/xlink">
   <g id="svg_1">
    <path id="svg_2" d="m199.113007,446.980988c-4.492004,0 -8.126999,3.639008 -8.126999,8.127014l0,1.297974c0,4.194 -3.270004,7.75 -7.451996,8.098999l-71.936005,5.996002c-9.729996,0.809998 -18.015999,7.321014 -21.102997,16.583008l-4.737999,14.213989c-1.421005,4.258026 0.880997,8.861023 5.134995,10.282013c0.857002,0.286011 1.722,0.42099 2.571007,0.42099c3.404999,0 6.570999,-2.154999 7.705994,-5.55899l4.737999,-14.213989c1.032005,-3.087006 3.794006,-5.257996 7.040001,-5.528015l4.897003,-0.40799l0,17.57901c0,4.487976 3.635002,8.126984 8.126999,8.126984s8.126999,-3.639008 8.126999,-8.126984l0,-18.933014l9.249008,-0.770996l7.424988,22.276001c1.13501,3.404999 4.302002,5.559021 7.706009,5.559021c0.848999,0 1.713989,-0.13504 2.570999,-0.421021c4.253998,-1.421021 6.556,-6.024017 5.134995,-10.282013l-6.173996,-18.522003l24.871994,-2.072998c12.540009,-1.043976 22.35701,-11.717987 22.35701,-24.296997l0,-1.298004c-0.000015,-4.488983 -3.634018,-8.127991 -8.126007,-8.127991z" fill="#EBAF4B"/>
    <path id="svg_3" d="m312.889008,446.980988c4.492004,0 8.127014,3.639008 8.127014,8.127014l0,1.297974c0,4.194 3.269989,7.75 7.451996,8.098999l71.935974,5.996002c9.730011,0.809998 18.016022,7.321014 21.103027,16.583008l4.737976,14.213989c1.421021,4.258026 -0.880981,8.861023 -5.134979,10.282013c-0.857025,0.286011 -1.722015,0.42099 -2.571014,0.42099c-3.404999,0 -6.570984,-2.154999 -7.705994,-5.55899l-4.738007,-14.213989c-1.031982,-3.087006 -3.794006,-5.257996 -7.040009,-5.528015l-4.896973,-0.40799l0,17.57901c0,4.487976 -3.63501,8.126984 -8.127014,8.126984s-8.127014,-3.639008 -8.127014,-8.126984l0,-18.933014l-9.248993,-0.770996l-7.424988,22.276001c-1.13501,3.404999 -4.302002,5.559021 -7.705994,5.559021c-0.848999,0 -1.71402,-0.13504 -2.571014,-0.421021c-4.253998,-1.421021 -6.556,-6.024017 -5.13501,-10.282013l6.174011,-18.522003l-24.872009,-2.072998c-12.539978,-1.043976 -22.356995,-11.717987 -22.356995,-24.296997l0,-1.298004c0,-4.488983 3.634003,-8.127991 8.126007,-8.127991z" fill="#EBAF4B"/>
   </g>
   <ellipse id="svg_6" cx="256.001" cy="280.38" rx="195.05" ry="199.11" fill="#824D51"/>
   <ellipse id="svg_7" cx="256.001" cy="288.51" rx="130.03" ry="174.73" fill="#C0826C"/>
   <path id="svg_8" d="m475.428009,138.158005l-25.858002,25.858002c0.937988,-5.815994 1.47699,-11.725006 1.47699,-17.731003c0,-80.791 -87.325012,-146.285004 -195.04599,-146.285004s-195.046005,65.494003 -195.046005,146.285004c0,6.005997 0.539001,11.914993 1.477001,17.731003l-25.858002,-25.858002c0,0 -29.395,73.487 -32.279998,122.629013c-0.236,4.010986 2.925,7.40097 6.942999,7.40097l17.21,0l0,17.97403c0,3.665985 2.844,6.695984 6.501999,6.939972c18.976002,1.268005 76.661999,3.090027 135.306004,-15.414978c-3.650009,-1.373016 85.746002,-42.008011 85.746002,-42.008011s81.268982,40.634995 85.746002,42.008011c58.644012,18.503998 116.329987,16.681976 135.306,15.414978c3.65799,-0.243988 6.501984,-3.274994 6.501984,-6.939972l0,-17.97403l17.210022,0c4.018005,0 7.178986,-3.390991 6.942993,-7.40097c-2.88501,-49.142014 -32.279999,-122.629013 -32.279999,-122.629013z" fill="#965A50"/>
   <path id="svg_9" d="m448.872986,62.685001c27.641998,-15.503002 37.434998,-37.153 40.904999,-50.528001c1.328003,-5.120996 -3.628998,-9.483999 -8.621002,-7.731997c-62.354004,21.888 -163.889984,-9.678002 -214.843994,76.627997c-4.677002,7.920998 -15.945999,7.920998 -20.621994,0c-50.955994,-86.305999 -152.492004,-54.740002 -214.845001,-76.626998c-4.992001,-1.752 -9.949999,2.611 -8.621,7.732c3.469999,13.373999 13.263998,35.025 40.905001,50.528002c4.777996,2.679993 5.73,9.084999 1.820995,12.923996c-25.611992,25.150002 -40.185999,61.496002 -35.695993,101.141998c6.268,55.354996 50.801996,100.206985 106.119013,106.797989c51.341995,6.117004 97.276993,-19.730988 120.628006,-60.240997c23.35199,40.51001 69.286987,66.358002 120.627991,60.240997c55.316986,-6.591003 99.850983,-51.442993 106.118988,-106.797989c4.489014,-39.645996 -10.083984,-75.991997 -35.695984,-101.141998c-3.910004,-3.840004 -2.959015,-10.245003 1.819977,-12.924999z" fill="#AF6E5A"/>
   <circle id="svg_11" cx="150.351" cy="162.54" r="81.27" fill="#EBAF4B"/>
   <circle id="svg_12" cx="150.351" cy="162.54" r="56.888" fill="#FFC850"/>
   <path id="svg_13" d="m261.328003,286.492004l16.149994,-43.065994c1.769012,-4.71701 0.617004,-10.032013 -2.945007,-13.594009l-7.039001,-7.039001c-6.347992,-6.347992 -16.638992,-6.347992 -22.985992,0l-7.038986,7.039001c-3.562012,3.561996 -4.713013,8.876999 -2.945007,13.594009l16.149994,43.065994c1.846008,4.921997 8.807999,4.921997 10.654007,0z" fill="#EBAF4B"/>
   <path id="svg_14" d="m150.350998,203.173004l0,0c-17.953995,0 -32.507996,-14.554001 -32.507996,-32.507996l0,-16.253998c0,-17.953003 14.554001,-32.508003 32.507996,-32.508003l0,0c17.953003,0 32.507996,14.553993 32.507996,32.508003l0,16.253998c0,17.953995 -14.554001,32.507996 -32.507996,32.507996z" fill="#4B3F4E"/>
   <circle id="svg_15" cx="154.411" cy="150.35" r="12.19" fill="#FFFFFF"/>
   <circle id="svg_16" cx="361.651" cy="162.54" r="81.27" fill="#EBAF4B"/>
   <circle id="svg_17" cx="361.651" cy="162.54" r="56.888" fill="#FFC850"/>
   <path id="svg_18" d="m361.651001,203.173004l0,0c-17.95401,0 -32.507996,-14.554001 -32.507996,-32.507996l0,-16.253998c0,-17.953003 14.553986,-32.508003 32.507996,-32.508003l0,0c17.953003,0 32.507996,14.553993 32.507996,32.508003l0,16.253998c0,17.953995 -14.554993,32.507996 -32.507996,32.507996z" fill="#4B3F4E"/>
   <circle id="svg_19" cx="365.711" cy="150.35" r="12.19" fill="#FFFFFF"/>
   <g id="svg_20"/>
   <g id="svg_21"/>
   <g id="svg_22"/>
   <g id="svg_23"/>
   <g id="svg_24"/>
   <g id="svg_25"/>
   <g id="svg_26"/>
   <g id="svg_27"/>
   <g id="svg_28"/>
   <g id="svg_29"/>
   <g id="svg_30"/>
   <g id="svg_31"/>
   <g id="svg_32"/>
   <g id="svg_33"/>
   <g id="svg_34"/>
  </symbol>
 </defs>
 <g>
  <title>Layer 1</title>
  <rect id="svg_5" height="250.999991" width="250.000008" x="0.999992" stroke-width="0" fill="#4b3f4e" stroke="#000000" y="0"/>
  <g id="svg_4"/>
  <g id="svg_10"/>
  <g id="svg_48"/>
  <g id="svg_52"/>
  <g id="svg_57"/>
  <use id="svg_61" xlink:href="#svg_60" transform="matrix(0.577732 0 0 0.577732 -158.158 -238.673)" y="504.483924" x="365.11996"/>
  <g id="svg_62"/>
 </g>
</svg>