<svg width="250" height="250" xmlns="http://www.w3.org/2000/svg" xmlns:svg="http://www.w3.org/2000/svg" xmlns:xlink="http://www.w3.org/1999/xlink">
 <!-- Created with SVG-edit - http://svg-edit.googlecode.com/ -->
 <defs>
  <symbol id="svg_55" viewBox="0 0 512 512" xmlns="http://www.w3.org/2000/svg" xmlns:xlink="http://www.w3.org/1999/xlink">
   <circle id="svg_1" cx="66.06" cy="222.97" r="66.06" fill="#965A50"/>
   <circle id="svg_2" cx="66.06" cy="222.97" r="41.29" fill="#EBC9A0"/>
   <circle id="svg_3" cx="445.94" cy="222.97" r="66.06" fill="#965A50"/>
   <circle id="svg_6" cx="445.94" cy="222.97" r="41.29" fill="#EBC9A0"/>
   <path id="svg_7" d="m442.588989,262.049011c-8.365997,-14.436005 -13.169006,-30.654999 -13.169006,-47.339996l0,-0.001007c0,-72.373001 -44.363983,-134.330002 -107.355011,-160.317993l0,-29.616018l-41.289978,16.516001l-8.257996,-33.032001c-21.781006,7.261002 -40.361008,22.497999 -54.356018,37.298c-77.556992,17.283001 -135.579987,86.390003 -135.579987,169.154011c0,16.684998 -4.803001,32.904007 -13.168999,47.340012c-12.720005,21.947998 -19.863003,46.481995 -19.863003,72.401978c0,93.496002 92.431004,169.290009 206.451984,169.290009s206.451996,-75.794006 206.451996,-169.290009c-0.000977,-25.919983 -7.144958,-50.454987 -19.863983,-72.402985z" fill="#AF6E5A"/>
   <path id="svg_8" d="m140.386993,364.042999c0,-30.23999 7.143005,-58.863983 19.863007,-84.468994c8.366989,-16.841003 13.168991,-35.764008 13.168991,-55.230011c0,-84.035004 43.969009,-155.955994 106.492996,-186.501999l-7.395996,-29.584c-21.781006,7.261002 -40.361008,22.497999 -54.356995,37.298c-77.554993,17.283001 -135.577988,86.390003 -135.577988,169.154011c0,16.684998 -4.802002,32.904007 -13.168999,47.340012c-12.720001,21.947998 -19.863003,46.481995 -19.863003,72.401978c0,75.464996 60.231998,139.369995 143.414997,161.223022c-32.681992,-34.94101 -52.576996,-81.05603 -52.576996,-131.632019l-0.000015,0z" fill="#965A50"/>
   <path id="svg_9" d="m256,470.709991c68.412018,0 123.871002,-44.367004 123.871002,-99.097015c0,-11.353973 -2.414001,-22.244995 -6.834991,-32.385986c-6.410004,-14.707001 -4.227997,-31.587006 6.069977,-43.889008c13.134003,-15.690979 19.90802,-36.876984 16.333008,-59.634995c-4.910004,-31.259003 -30.182007,-56.485992 -61.447998,-61.352997c-23.891998,-3.718994 -46.036987,3.968002 -61.902985,18.438995c-4.51001,4.113007 -10.300018,6.169998 -16.087006,6.169998c-5.790009,0 -11.581009,-2.056 -16.091003,-6.169998c-15.865997,-14.470993 -38.011002,-22.158005 -61.903,-18.438995c-31.266006,4.865997 -56.537003,30.093994 -61.448006,61.352997c-3.574997,22.757004 3.198997,43.943008 16.333,59.634995c10.298004,12.303009 12.479996,29.182007 6.070007,43.889008c-4.419998,10.141998 -6.835007,21.03299 -6.835007,32.385986c0.001999,54.729034 55.460999,99.097015 123.873001,99.097015z" fill="#FAEBC8"/>
   <path id="svg_11" d="m132.128998,371.612c0,18.522003 6.468002,35.795013 17.524002,50.625c-5.938004,-18.411011 -9.266006,-37.916016 -9.266006,-58.195007c0,-30.23999 7.143005,-58.863983 19.863007,-84.468994c8.367004,-16.841003 13.169006,-35.764008 13.169006,-55.229996c0,-17.307007 1.959991,-34.056 5.467987,-50.080002c-0.294998,0.041992 -0.582993,0.039993 -0.878998,0.085999c-31.265991,4.865997 -56.535995,30.093994 -61.447998,61.352005c-3.574997,22.75798 3.199997,43.943985 16.332993,59.634995c10.298004,12.302002 12.481003,29.181 6.071014,43.889008c-4.421005,10.143005 -6.835007,21.033997 -6.835007,32.386993z" fill="#F5DCB4"/>
   <g id="svg_12">
    <path id="svg_13" d="m239.475998,330.322998c-1.242004,0 -2.5,-0.278015 -3.684998,-0.871002l-16.516006,-8.257996c-4.080994,-2.040009 -5.733994,-7 -3.694,-11.080994c2.048004,-4.080994 7,-5.734009 11.081009,-3.694l16.515991,8.257996c4.081009,2.040009 5.734009,7 3.694,11.080994c-1.452988,2.89502 -4.363998,4.565002 -7.395996,4.565002z" fill="#5D5360"/>
    <path id="svg_14" d="m272.523987,330.322998c-3.032013,0 -5.944,-1.669006 -7.394989,-4.565002c-2.040009,-4.080994 -0.387024,-9.040009 3.694,-11.080994l16.515991,-8.257996c4.072998,-2.040009 9.032013,-0.387024 11.080994,3.694c2.040009,4.080994 0.386993,9.039978 -3.694,11.080994l-16.515991,8.257996c-1.186005,0.59201 -2.444,0.871002 -3.686005,0.871002z" fill="#5D5360"/>
   </g>
   <path id="svg_15" d="m182.319,363.355011c-5.001007,0 -8.940994,4.431 -8.248001,9.384003c5.126007,36.617004 39.852997,64.937988 81.929001,64.937988c42.076996,0 76.803009,-28.320984 81.929016,-64.937988c0.692993,-4.953003 -3.247009,-9.384003 -8.248016,-9.384003l-147.362,0z" fill="#4B3F4E"/>
   <path id="svg_16" d="m208.417007,424.037994c13.457001,8.562988 29.848999,13.639008 47.582993,13.639008s34.126007,-5.076019 47.583008,-13.639008c-5.966003,-20.666016 -25.062988,-35.908997 -47.583008,-35.908997s-41.617004,15.242004 -47.582993,35.908997z" fill="#E6646E"/>
   <path id="svg_17" d="m181.677002,272.515991l0,0c-13.682007,0 -24.774002,-11.09201 -24.774002,-24.774002l0,-8.257996c0,-13.682007 11.091995,-24.774002 24.774002,-24.774002l0,0c13.682007,0 24.774002,11.091995 24.774002,24.774002l0,8.257996c0.000992,13.682022 -11.091003,24.774002 -24.774002,24.774002z" fill="#4B3F4E"/>
   <path id="svg_18" d="m181.677002,214.710007l0,28.903c0,6.841003 5.546005,12.386993 12.386993,12.386993s12.387009,-5.54599 12.387009,-12.386993l0,-4.128998c0.000992,-13.683014 -11.091003,-24.774002 -24.774002,-24.774002z" fill="#5D5360"/>
   <circle id="svg_19" cx="181.68" cy="231.23" r="8.258" fill="#FFFFFF"/>
   <path id="svg_20" d="m330.322998,272.515991l0,0c-13.682007,0 -24.773987,-11.09201 -24.773987,-24.774002l0,-8.257996c0,-13.682007 11.09198,-24.774002 24.773987,-24.774002l0,0c13.682007,0 24.773987,11.091995 24.773987,24.774002l0,8.257996c0,13.682022 -11.09198,24.774002 -24.773987,24.774002z" fill="#4B3F4E"/>
   <path id="svg_21" d="m330.322998,214.710007l0,28.903c0,6.841003 5.54599,12.386993 12.386993,12.386993s12.386993,-5.54599 12.386993,-12.386993l0,-4.128998c0,-13.683014 -11.09198,-24.774002 -24.773987,-24.774002z" fill="#5D5360"/>
   <circle id="svg_22" cx="330.32" cy="231.23" r="8.258" fill="#FFFFFF"/>
   <path id="svg_23" d="m256,437.677002c2.791992,0 5.537994,-0.169006 8.257996,-0.415009l0,-16.100983c0,-4.559998 -3.694,-8.257996 -8.257996,-8.257996s-8.257996,3.697998 -8.257996,8.257996l0,16.100983c2.720001,0.246002 5.465988,0.415009 8.257996,0.415009z" fill="#FF8087"/>
   <g id="svg_24"/>
   <g id="svg_25"/>
   <g id="svg_26"/>
   <g id="svg_27"/>
   <g id="svg_28"/>
   <g id="svg_29"/>
   <g id="svg_30"/>
   <g id="svg_31"/>
   <g id="svg_32"/>
   <g id="svg_33"/>
   <g id="svg_34"/>
   <g id="svg_35"/>
   <g id="svg_36"/>
   <g id="svg_37"/>
   <g id="svg_38"/>
  </symbol>
 </defs>
 <g>
  <title>Layer 1</title>
  <rect id="svg_5" height="250.999991" width="250.000008" x="0.999992" stroke-width="0" fill="#80d135" stroke="#000000" y="0"/>
  <g id="svg_4"/>
  <g id="svg_10"/>
  <g id="svg_48"/>
  <g id="svg_52"/>
  <use id="svg_56" xlink:href="#svg_55" transform="matrix(0.623363 0 0 0.623363 -174.533 -240.87)" y="461.929263" x="355.510309"/>
  <g id="svg_57"/>
 </g>
</svg>