<svg width="250" height="250" xmlns="http://www.w3.org/2000/svg" xmlns:svg="http://www.w3.org/2000/svg" xmlns:xlink="http://www.w3.org/1999/xlink">
 <!-- Created with SVG-edit - http://svg-edit.googlecode.com/ -->
 <defs>
  <symbol viewBox="0 0 512.001 512.001" id="svg_2" xmlns:xlink="http://www.w3.org/1999/xlink" xmlns="http://www.w3.org/2000/svg">
   <path fill="#D26437" d="m256.005005,12.733c2.885986,-0.000998 5.772003,-0.767 8.372009,-2.297997c7.997986,-4.709002 21.720978,-10.435002 41.169983,-10.435002c37.319,0 66.067017,16.516001 66.067017,16.516001l-16.516022,16.516001c17.752014,4.733997 27.871002,7.57 47.369019,17.785999c68.569,35.927002 101.276001,114.342995 101.276001,114.342995l-33.032013,0c41.289001,66.065002 41.289001,156.904007 41.289001,156.904007l-24.773987,-8.257996c0,0 0,74.322998 -33.032013,123.871002l-24.773987,-16.516022c0,0 -24.774017,41.290009 -66.065002,66.065033l-16.516022,-16.516022c0,0 -41.290009,33.032013 -90.838989,41.290039c-49.548004,-8.258026 -90.839005,-41.290039 -90.839005,-41.290039l-16.515991,16.516022c-41.290001,-24.774017 -66.065002,-66.065033 -66.065002,-66.065033l-24.774002,16.516022c-33.030998,-49.548004 -33.030998,-123.871002 -33.030998,-123.871002l-24.774001,8.257996c0,0 0,-90.838989 41.289999,-156.903l-33.032,0c0,0 32.707003,-78.415993 101.276003,-114.342995c19.498001,-10.216003 29.616989,-13.052013 47.369003,-17.786003l-16.516006,-16.516008c0,0 28.746994,-16.516 66.067001,-16.516c19.449005,0 33.171997,5.726 41.169998,10.436c2.600006,1.530998 5.485992,2.297 8.371994,2.297997" id="svg_1"/>
   <path fill="#B44632" d="m187.220001,91.077003c0,0 23.876999,-48.754002 64.061005,-79.097008c-1.255005,-0.379 -2.491013,-0.858 -3.657013,-1.544c-7.996994,-4.71 -21.719986,-10.436 -41.168991,-10.436c-37.319,0 -66.067001,16.516001 -66.067001,16.516001l16.516006,16.516001c-17.752014,4.733997 -27.871002,7.57 -47.369003,17.785999c-68.569,35.927006 -101.276001,114.342999 -101.276001,114.342999l33.032001,0c-41.290001,66.065002 -41.290001,156.904007 -41.290001,156.904007l24.774,-8.257996c0,0 0,74.322998 33.032003,123.871002l24.774002,-16.516022c0,0 24.774002,41.290009 66.064987,66.065033l16.516006,-16.516022c0,0 41.290009,33.032013 90.839005,41.290039c0,-0.001038 -59.871002,-24.775024 -68.781006,-420.924042l0,0.000015l0,-0.000008z" id="svg_6"/>
   <path fill="#EBAF4B" d="m410.231995,50.111c19.54599,-3.790001 37.45401,12.092999 35.567017,31.913002c-2.343018,24.605995 -20.421997,67.996994 -45.196014,93.546005l-79.570007,-80.086006c30.489014,-24.202003 68.359009,-41.332001 89.199005,-45.373001z" id="svg_7"/>
   <path fill="#E18C46" d="m342.606995,117.197998c25.356018,-19.381996 62.841003,-44.878998 73.222992,-45.921997c11.932007,-1.198997 19.371002,15.260002 14.705994,33.023003c-4.049988,15.421997 -19.497986,43.709999 -34.875977,66.295982l-53.053009,-53.396988z" id="svg_8"/>
   <path fill="#EBAF4B" d="m101.769997,50.111c-19.545998,-3.790001 -37.453995,12.092999 -35.566994,31.913002c2.342995,24.605995 20.421997,67.996994 45.195984,93.546005l79.570007,-80.086006c-30.488998,-24.202003 -68.358994,-41.332001 -89.198997,-45.373001z" id="svg_9"/>
   <path fill="#E18C46" d="m169.395004,117.197998c-25.356003,-19.381996 -62.841003,-44.878998 -73.223007,-45.921997c-11.931999,-1.198997 -19.370995,15.260002 -14.705994,33.023003c4.049995,15.421997 19.497993,43.709999 34.875999,66.295982l53.053001,-53.396988z" id="svg_11"/>
   <path fill="#FFC850" d="m355.097992,99.097c-32.592987,-25.349998 -99.097015,16.515999 -99.097015,16.515999s-66.503983,-41.865997 -99.096985,-16.515999c-74.322998,57.806 -90.839005,222.968002 -82.581001,255.999985c6.009003,24.034027 57.805992,66.065002 115.612999,82.581024l132.129013,0c57.806,-16.516022 109.603973,-58.546021 115.612976,-82.581024c8.258026,-33.031982 -8.257965,-198.193985 -82.579987,-255.999985z" id="svg_12"/>
   <path fill="#EBAF4B" d="m125.236,403.81601c-6.343002,-39.606995 8.657997,-215.343002 61.984001,-312.739014c-11.210999,-0.540001 -21.899002,1.473 -30.315994,8.019997c-74.323006,57.805992 -90.839005,222.96801 -82.581009,255.999992c3.617004,14.469025 23.889,35.439026 52.016998,53.458008c-0.423996,-1.610992 -0.862,-3.229004 -1.103996,-4.738983z" id="svg_13"/>
   <path fill="#FAEBC8" d="m437.678009,313.700989c-6.009003,24.033997 -57.806,66.065002 -115.613007,82.580994l-132.128998,0c-57.806,-16.515991 -109.603996,-58.54599 -115.612991,-82.580994c-0.375999,-1.501007 -0.68,-3.363007 -0.950005,-5.388c-1.635002,21.488007 -1.145996,38.401001 0.950005,46.783997c6.008995,24.033997 57.806,66.065002 115.612991,82.580994l132.128998,0c57.806,-16.515991 109.604004,-58.54599 115.613007,-82.580994c2.095978,-8.382996 2.584991,-25.29599 0.949982,-46.783997c-0.268982,2.024017 -0.574005,3.886017 -0.949982,5.388z" id="svg_14"/>
   <path fill="#F5DCB4" d="m187.462006,424.269989c4.287003,26.335999 27.139008,46.440002 54.686005,46.440002l27.704987,0c27.433014,0 50.210999,-19.937988 54.633026,-46.113007l-68.480011,-11.692993l-68.544006,11.365997z" id="svg_15"/>
   <path fill="#FAEBC8" d="m301.420013,346.838989c-19.154999,0 -35.919983,7.742004 -45.419006,19.355988c-9.498993,-11.613983 -26.264984,-19.355988 -45.418991,-19.355988c-29.644989,0 -53.677002,18.485992 -53.677002,41.290009s24.031998,41.289978 53.677002,41.289978c19.154999,0 35.919998,-7.741974 45.418991,-19.355988c9.498993,11.614014 26.265015,19.355988 45.419006,19.355988c29.644989,0 53.677002,-18.485992 53.677002,-41.289978s-24.031006,-41.290009 -53.677002,-41.290009z" id="svg_16"/>
   <path fill="#D4AF91" d="m298.016998,437.411011c-14.427002,0 -28.015991,-4.782013 -39.298004,-13.826996c-1.596985,-1.282013 -3.830994,-1.282013 -5.444,0c-11.273987,9.044006 -24.862991,13.826996 -39.289993,13.826996c-34.854996,0 -63.210007,-28.559998 -63.210007,-63.665009c0,-4.559998 3.694,-8.257996 8.258011,-8.257996s8.257996,3.697998 8.257996,8.257996c0,26 20.944,47.149017 46.694,47.149017c10.628998,0 20.645004,-3.524017 28.960007,-10.197998c7.694,-6.161011 18.427002,-6.161011 26.10498,0c8.322998,6.672974 18.33902,10.197998 28.968018,10.197998c25.75,0 46.694,-21.149017 46.694,-47.149017c0,-4.559998 3.694,-8.257996 8.257996,-8.257996s8.257996,3.697998 8.257996,8.257996c-0.001007,35.105011 -28.355988,63.665009 -63.210999,63.665009z" id="svg_17"/>
   <path fill="#5D5360" d="m211.445007,361.269012l17.541,14.625c15.647995,13.04599 38.383011,13.04599 54.030014,0l17.540985,-14.623993c7.770996,-6.479004 3.23999,-19.128021 -6.876984,-19.128021c-22.403015,0 -52.95401,0 -75.358017,-0.000977c-10.117004,-0.000031 -14.64801,12.648987 -6.876999,19.127991z" id="svg_18"/>
   <path fill="#FFDC64" d="m256.001007,214.710007c-4.565002,0 -8.257996,-3.697998 -8.257996,-8.257996l0,-67.419006c0,-4.559998 3.694,-8.257996 8.257996,-8.257996s8.257996,3.697998 8.257996,8.257996l0,67.419006c0,4.559982 -3.692993,8.257996 -8.257996,8.257996z" id="svg_19"/>
   <path fill="#4B3F4E" d="m173.419998,297.290009l0,0c-13.681992,0 -24.774002,-11.09201 -24.774002,-24.773987l0,-8.258026c0,-13.681992 11.09201,-24.773987 24.774002,-24.773987l0,0c13.682007,0 24.774002,11.091995 24.774002,24.773987l0,8.258026c0.001007,13.682983 -11.091003,24.773987 -24.774002,24.773987z" id="svg_20"/>
   <path fill="#5D5360" d="m173.419998,239.483994l0,28.903c0,6.841003 5.546005,12.386993 12.387009,12.386993c6.840988,0 12.386993,-5.54599 12.386993,-12.386993l0,-4.128998c0.001007,-13.681992 -11.091003,-24.774002 -24.774002,-24.774002z" id="svg_21"/>
   <circle fill="#FFFFFF" r="8.258" cy="256" cx="173.421" id="svg_22"/>
   <path fill="#4B3F4E" d="m338.582001,297.290009l0,0c-13.682007,0 -24.773987,-11.09201 -24.773987,-24.773987l0,-8.258026c0,-13.681992 11.09198,-24.773987 24.773987,-24.773987l0,0c13.682007,0 24.773987,11.091995 24.773987,24.773987l0,8.258026c0,13.682983 -11.09198,24.773987 -24.773987,24.773987z" id="svg_23"/>
   <path fill="#5D5360" d="m338.582001,239.483994l0,28.903c0,6.841003 5.54599,12.386993 12.386993,12.386993s12.386993,-5.54599 12.386993,-12.386993l0,-4.128998c0,-13.681992 -11.09198,-24.774002 -24.773987,-24.774002z" id="svg_24"/>
   <circle fill="#FFFFFF" r="8.258" cy="256" cx="338.581" id="svg_25"/>
   <path fill="#4B3F4E" d="m260.953003,374.632996l-17.542007,-20.173004c-2.923996,-3.363007 -4.100998,-7.928986 -3.899994,-12.319c-7.473007,0 -14.690002,0 -21.188995,0c-10.117004,0 -14.64801,12.649017 -6.878006,19.128021l17.541,14.625c11.942001,9.957001 27.992996,12.256989 41.891006,7.015991c-3.490021,-2.141998 -6.867004,-4.763 -9.923004,-8.277008z" id="svg_26"/>
   <path fill="#F5DCB4" d="m74.323997,313.700989c-0.375999,-1.501007 -0.68,-3.363007 -0.949997,-5.388c-1.635002,21.488007 -1.146004,38.401001 0.949997,46.783997c3.617004,14.468994 23.889,35.438019 52.017006,53.458008c-0.424004,-1.610992 -0.862007,-3.229004 -1.104004,-4.739014c-1.260002,-7.865997 -1.661003,-21.162994 -1.103996,-38.087982c-26.974007,-17.691986 -46.288002,-37.940002 -49.809006,-52.027008z" id="svg_27"/>
   <g id="svg_28"/>
   <g id="svg_29"/>
   <g id="svg_30"/>
   <g id="svg_31"/>
   <g id="svg_32"/>
   <g id="svg_33"/>
   <g id="svg_34"/>
   <g id="svg_35"/>
   <g id="svg_36"/>
   <g id="svg_37"/>
   <g id="svg_38"/>
   <g id="svg_39"/>
   <g id="svg_40"/>
   <g id="svg_41"/>
   <g id="svg_42"/>
  </symbol>
 </defs>
 <g>
  <title>Layer 1</title>
  <rect id="svg_5" height="250.999991" width="250.000008" x="0.999992" stroke-width="0" fill="#e89654" stroke="#000000" y="0"/>
  <use x="605.578406" y="529.240668" transform="matrix(0.495807 0 0 0.495807 -232.664 -204.815)" xlink:href="#svg_2" id="svg_3"/>
  <g id="svg_4"/>
  <g id="svg_10"/>
  <use x="583.841195" y="551.901951" transform="matrix(0.562631 0 0 0.562631 -273.816 -255.846)" xlink:href="#svg_2" id="svg_43"/>
 </g>
</svg>