<svg xmlns="http://www.w3.org/2000/svg" width="196" height="196" viewBox="0 0 196 196">
    <defs>
        <filter id="a" width="100%" height="100%" x="0%" y="0%" filterUnits="objectBoundingBox">
            <feOffset dx="2" dy="2" in="SourceAlpha" result="shadowOffsetOuter1"/>
            <feGaussianBlur in="shadowOffsetOuter1" result="shadowBlurOuter1" stdDeviation="2"/>
            <feColorMatrix in="shadowBlurOuter1" result="shadowMatrixOuter1" values="0 0 0 0 0.8 0 0 0 0 0.8 0 0 0 0 0.8 0 0 0 0.5 0"/>
            <feMerge>
                <feMergeNode in="shadowMatrixOuter1"/>
                <feMergeNode in="SourceGraphic"/>
            </feMerge>
        </filter>
    </defs>
    <g fill="none" fill-rule="evenodd" filter="url(#a)" transform="translate(2 2)">
        <circle cx="44" cy="44" r="44" fill="#EA964D"/>
        <g fill-rule="nonzero" transform="translate(20 20)">
            <path fill="#D26437" d="M24 1.194c.271 0 .542-.072.785-.216.75-.441 2.037-.978 3.86-.978 3.499 0 6.194 1.548 6.194 1.548L33.29 3.097c1.665.444 2.613.71 4.441 1.667 6.429 3.368 9.495 10.72 9.495 10.72h-3.097C48 21.677 48 30.194 48 30.194l-2.323-.775s0 6.968-3.096 11.613l-2.323-1.548s-2.322 3.87-6.193 6.193l-1.549-1.548S28.646 47.226 24 48c-4.645-.774-8.516-3.87-8.516-3.87l-1.549 1.547c-3.87-2.322-6.193-6.193-6.193-6.193l-2.323 1.548C2.323 36.387 2.323 29.42 2.323 29.42L0 30.194s0-8.517 3.87-14.71H.775S3.84 8.132 10.27 4.764c1.828-.957 2.776-1.223 4.44-1.667l-1.548-1.549S15.856 0 19.355 0c1.823 0 3.11.537 3.86.978.244.144.514.216.785.216"/>
            <path fill="#B44632" d="M17.552 8.538s2.238-4.57 6.006-7.415a1.557 1.557 0 0 1-.343-.145C22.465.537 21.178 0 19.355 0c-3.499 0-6.194 1.548-6.194 1.548l1.549 1.549c-1.665.444-2.613.71-4.441 1.667C3.84 8.132.774 15.484.774 15.484h3.097C0 21.677 0 30.194 0 30.194l2.323-.775s0 6.968 3.096 11.613l2.323-1.548s2.322 3.87 6.193 6.193l1.549-1.548S19.354 47.226 24 48c0 0-5.613-2.323-6.448-39.462z"/>
            <path fill="#EBAF4B" d="M38.57 5.054c1.878-.361 3.598 1.151 3.417 3.038-.225 2.343-1.962 6.475-4.342 8.908L30 9.374c2.93-2.304 6.568-3.936 8.57-4.32z"/>
            <path fill="#E18C46" d="M32 11.164c2.27-1.755 5.627-4.064 6.557-4.158 1.068-.109 1.735 1.382 1.317 2.99-.363 1.397-1.746 3.959-3.123 6.004L32 11.164z"/>
            <path fill="#EBAF4B" d="M9.43 5.054c-1.878-.361-3.598 1.151-3.417 3.038.225 2.343 1.962 6.475 4.342 8.908L18 9.374c-2.93-2.304-6.568-3.936-8.57-4.32z"/>
            <path fill="#E18C46" d="M16 11.164C13.73 9.41 10.373 7.1 9.443 7.006c-1.068-.109-1.735 1.382-1.317 2.99.363 1.397 1.746 3.959 3.123 6.004L16 11.164z"/>
            <path fill="#FFC850" d="M33.175 9.752C30.157 7.412 24 11.277 24 11.277s-6.157-3.864-9.175-1.525C7.944 15.087 6.415 30.33 7.179 33.38c.556 2.218 5.352 6.097 10.704 7.621h12.234c5.352-1.524 10.148-5.403 10.704-7.621.765-3.049-.765-18.292-7.646-23.627z"/>
            <path fill="#EBAF4B" d="M12.062 38.552c-.607-3.741.83-20.343 5.938-29.544-1.074-.051-2.098.139-2.904.758-7.12 5.46-8.702 21.063-7.91 24.184.346 1.367 2.288 3.348 4.982 5.05-.04-.152-.083-.305-.106-.448z"/>
            <path fill="#FAEBC8" d="M40.822 29.5c-.557 2.23-5.353 6.128-10.705 7.66H17.883c-5.352-1.532-10.148-5.43-10.705-7.66a4.726 4.726 0 0 1-.088-.5c-.151 1.993-.106 3.562.088 4.34.557 2.23 5.353 6.128 10.705 7.66h12.234c5.352-1.532 10.148-5.43 10.705-7.66.194-.778.239-2.347.088-4.34-.025.188-.053.36-.088.5z"/>
            <path fill="#F5DCB4" d="M18 39.983C18.407 42.261 20.575 44 23.188 44h2.629c2.602 0 4.763-1.725 5.183-3.989L24.503 39 18 39.983z"/>
            <path fill="#FAEBC8" d="M28.854 32c-1.836 0-3.443.75-4.354 1.875C23.59 32.75 21.982 32 20.146 32 17.304 32 15 33.79 15 36s2.304 4 5.146 4c1.836 0 3.443-.75 4.354-1.875C25.41 39.25 27.018 40 28.854 40 31.696 40 34 38.21 34 36s-2.304-4-5.146-4z"/>
            <path fill="#D4AF91" d="M27.993 41a5.825 5.825 0 0 1-3.735-1.346.404.404 0 0 0-.517 0A5.822 5.822 0 0 1 20.007 41C16.695 41 14 38.22 14 34.804c0-.444.351-.804.785-.804.434 0 .785.36.785.804 0 2.53 1.99 4.589 4.437 4.589a4.29 4.29 0 0 0 2.752-.993c.731-.6 1.751-.6 2.481 0 .791.65 1.743.993 2.753.993 2.447 0 4.437-2.059 4.437-4.59 0-.443.351-.803.785-.803.434 0 .785.36.785.804C34 38.22 31.305 41 27.993 41z"/>
            <path fill="#5D5360" d="M19.364 33.757l1.629 1.344a3.947 3.947 0 0 0 5.014 0l1.629-1.344c.72-.595.3-1.757-.639-1.757h-6.994c-.94 0-1.36 1.162-.639 1.757z"/>
            <path fill="#FFDC64" d="M24 20c-.553 0-1-.352-1-.787v-6.426c0-.435.447-.787 1-.787.553 0 1 .352 1 .787v6.426c0 .435-.447.787-1 .787z"/>
            <path fill="#4B3F4E" d="M16.5 27c-1.38 0-2.5-.96-2.5-2.143v-.714C14 22.959 15.12 22 16.5 22s2.5.96 2.5 2.143v.714C19 26.041 17.88 27 16.5 27z"/>
            <path fill="#5D5360" d="M16 22v2.8c0 .663.448 1.2 1 1.2s1-.537 1-1.2v-.4c0-1.325-.895-2.4-2-2.4z"/>
            <circle cx="16" cy="24" r="1" fill="#FFF"/>
            <path fill="#4B3F4E" d="M31.5 27c-1.38 0-2.5-.96-2.5-2.143v-.714C29 22.959 30.12 22 31.5 22s2.5.96 2.5 2.143v.714C34 26.041 32.88 27 31.5 27z"/>
            <path fill="#5D5360" d="M32 22v2.8c0 .663.448 1.2 1 1.2s1-.537 1-1.2v-.4c0-1.325-.895-2.4-2-2.4z"/>
            <circle cx="32" cy="24" r="1" fill="#FFF"/>
            <path fill="#4B3F4E" d="M24.06 34.988l-1.66-1.855c-.278-.31-.39-.73-.37-1.133h-2.007c-.958 0-1.387 1.163-.651 1.76l1.66 1.344a4.085 4.085 0 0 0 3.968.645 3.954 3.954 0 0 1-.94-.761z"/>
            <path fill="#F5DCB4" d="M7.178 29.484A4.437 4.437 0 0 1 7.09 29c-.151 1.93-.106 3.448.088 4.2.336 1.3 2.215 3.182 4.822 4.8-.04-.145-.08-.29-.102-.425-.117-.707-.154-1.9-.103-3.42-2.5-1.589-4.29-3.406-4.617-4.671z"/>
        </g>
    </g>
</svg>
