<svg xmlns="http://www.w3.org/2000/svg" width="96" height="96" viewBox="0 0 96 96">
    <defs>
        <filter id="a" width="101.7%" height="109.2%" x="-.6%" y="-3.3%" filterUnits="objectBoundingBox">
            <feOffset dx="2" dy="2" in="SourceAlpha" result="shadowOffsetOuter1"/>
            <feGaussianBlur in="shadowOffsetOuter1" result="shadowBlurOuter1" stdDeviation="2"/>
            <feColorMatrix in="shadowBlurOuter1" result="shadowMatrixOuter1" values="0 0 0 0 0.8 0 0 0 0 0.8 0 0 0 0 0.8 0 0 0 0.5 0"/>
            <feMerge>
                <feMergeNode in="shadowMatrixOuter1"/>
                <feMergeNode in="SourceGraphic"/>
            </feMerge>
        </filter>
    </defs>
    <g fill="none" fill-rule="evenodd" filter="url(#a)" transform="translate(2 2)">
        <circle cx="44" cy="44" r="44" fill="#7ED321"/>
        <g fill-rule="nonzero" transform="translate(19 20)">
            <ellipse cx="6.451" cy="20.804" fill="#965A50" rx="6.451" ry="6.393"/>
            <ellipse cx="6.451" cy="20.804" fill="#EBC9A0" rx="4.032" ry="3.996"/>
            <ellipse cx="43.549" cy="20.804" fill="#965A50" rx="6.451" ry="6.393"/>
            <ellipse cx="43.549" cy="20.804" fill="#EBC9A0" rx="4.032" ry="3.996"/>
            <path fill="#AF6E5A" d="M43.222 24.585c-.817-1.397-1.286-2.966-1.286-4.58v-.001c0-7.004-4.333-13-10.484-15.515V1.623l-4.033 1.599-.806-3.197c-2.127.703-3.942 2.177-5.308 3.61-7.574 1.672-13.24 8.36-13.24 16.37 0 1.614-.47 3.183-1.286 4.58-1.243 2.124-1.94 4.499-1.94 7.007 0 9.048 9.026 16.383 20.161 16.383 11.135 0 20.161-7.335 20.161-16.383 0-2.508-.697-4.883-1.94-7.007z"/>
            <path fill="#965A50" d="M13.71 34.456c0-2.927.697-5.697 1.94-8.175a11.958 11.958 0 0 0 1.285-5.344c0-8.133 4.294-15.093 10.4-18.05L26.613.026c-2.127.703-3.942 2.177-5.308 3.61-7.574 1.672-13.24 8.36-13.24 16.37 0 1.614-.47 3.183-1.286 4.58-1.243 2.124-1.94 4.499-1.94 7.007 0 7.303 5.882 13.488 14.005 15.602-3.191-3.381-5.134-7.844-5.134-12.738z"/>
            <path fill="#FAEBC8" d="M25 44.778c6.68 0 12.097-4.293 12.097-9.59a7.745 7.745 0 0 0-.668-3.134c-.626-1.423-.413-3.057.593-4.247a7.133 7.133 0 0 0 1.595-5.771c-.48-3.025-2.947-5.467-6-5.938-2.334-.36-4.496.384-6.046 1.785a2.34 2.34 0 0 1-1.57.597 2.339 2.339 0 0 1-1.572-.597c-1.55-1.4-3.712-2.145-6.046-1.785-3.053.471-5.52 2.913-6 5.938a7.134 7.134 0 0 0 1.595 5.77c1.005 1.192 1.218 2.825.593 4.248a7.748 7.748 0 0 0-.668 3.134c0 5.297 5.416 9.59 12.097 9.59z"/>
            <path fill="#F5DCB4" d="M12.903 35.188c0 1.793.632 3.464 1.712 4.9a18.15 18.15 0 0 1-.905-5.632c0-2.927.697-5.697 1.94-8.175a11.958 11.958 0 0 0 1.285-5.345c0-1.674.192-3.295.534-4.846-.028.004-.056.004-.085.008-3.054.471-5.521 2.913-6.001 5.938a7.134 7.134 0 0 0 1.595 5.77c1.005 1.191 1.219 2.825.593 4.248a7.747 7.747 0 0 0-.668 3.134z"/>
            <g fill="#5D5360">
                <path d="M23.386 31.193a.807.807 0 0 1-.36-.085l-1.612-.799a.796.796 0 0 1-.361-1.072.81.81 0 0 1 1.082-.358l1.613.8c.398.197.56.677.36 1.072a.808.808 0 0 1-.722.442zM26.614 31.193a.807.807 0 0 1-.722-.442.796.796 0 0 1 .36-1.073l1.613-.799a.81.81 0 0 1 1.082.358c.2.395.038.875-.36 1.072l-1.613.8a.81.81 0 0 1-.36.084z"/>
            </g>
            <path fill="#4B3F4E" d="M17.805 34.39a.807.807 0 0 0-.806.907c.5 3.544 3.892 6.285 8.001 6.285 4.11 0 7.5-2.741 8-6.285a.807.807 0 0 0-.805-.908h-14.39z"/>
            <path fill="#E6646E" d="M20.353 40.262A8.7 8.7 0 0 0 25 41.582a8.7 8.7 0 0 0 4.647-1.32A4.849 4.849 0 0 0 25 36.787a4.848 4.848 0 0 0-4.647 3.475z"/>
            <path fill="#4B3F4E" d="M17.742 25.598a2.409 2.409 0 0 1-2.42-2.397v-.8a2.409 2.409 0 0 1 2.42-2.397 2.409 2.409 0 0 1 2.42 2.398v.799a2.408 2.408 0 0 1-2.42 2.397z"/>
            <path fill="#5D5360" d="M17.742 20.004v2.797c0 .662.541 1.199 1.21 1.199.668 0 1.21-.537 1.21-1.199v-.4a2.408 2.408 0 0 0-2.42-2.397z"/>
            <ellipse cx="17.742" cy="21.603" fill="#FFF" rx="1" ry="1"/>
            <path fill="#4B3F4E" d="M32.258 25.598a2.409 2.409 0 0 1-2.42-2.397v-.8a2.409 2.409 0 0 1 2.42-2.397 2.409 2.409 0 0 1 2.42 2.398v.799a2.409 2.409 0 0 1-2.42 2.397z"/>
            <path fill="#5D5360" d="M32.258 20.004v2.797c0 .662.542 1.199 1.21 1.199.668 0 1.21-.537 1.21-1.199v-.4a2.408 2.408 0 0 0-2.42-2.397z"/>
            <ellipse cx="32.258" cy="21.603" fill="#FFF" rx="1" ry="1"/>
            <path fill="#FF8087" d="M25 41.582c.273 0 .54-.017.806-.04v-1.559c0-.441-.36-.799-.806-.799a.803.803 0 0 0-.806.8v1.557c.265.024.533.04.806.04z"/>
        </g>
    </g>
</svg>
