<?xml version="1.0" encoding="iso-8859-1"?>
<!-- Generator: Adobe Illustrator 19.0.0, SVG Export Plug-In . SVG Version: 6.00 Build 0)  -->
<svg version="1.1" id="Capa_1" xmlns="http://www.w3.org/2000/svg" xmlns:xlink="http://www.w3.org/1999/xlink" x="0px" y="0px"
	 viewBox="0 0 415.079 415.079" style="enable-background:new 0 0 415.079 415.079;" xml:space="preserve">
<linearGradient id="SVGID_1_" gradientUnits="userSpaceOnUse" x1="207.5394" y1="451.5492" x2="207.5394" y2="23.3792" gradientTransform="matrix(1 0 0 -1 0 417.0984)">
	<stop  offset="0" style="stop-color:#00EFD1"/>
	<stop  offset="1" style="stop-color:#00ACEA"/>
</linearGradient>
<path style="fill:url(#SVGID_1_);" d="M406.515,153.279l-131.313-19.065L216.509,15.28c-2.444-4.953-8.44-6.986-13.393-4.542
	c-1.972,0.973-3.569,2.57-4.542,4.542l-58.693,118.934L8.565,153.279c-5.466,0.793-9.253,5.867-8.46,11.333
	c0.316,2.177,1.341,4.19,2.917,5.725l95.028,92.632L75.594,393.68c-0.935,5.443,2.719,10.614,8.162,11.549
	c2.169,0.373,4.4,0.02,6.347-1.004l117.439-61.739l117.438,61.739c4.889,2.569,10.935,0.689,13.504-4.199
	c1.023-1.947,1.376-4.178,1.004-6.346L317.03,262.969l95.028-92.632c3.955-3.855,4.037-10.186,0.182-14.141
	C410.705,154.621,408.692,153.595,406.515,153.279L406.515,153.279z M299.304,252.318c-2.358,2.298-3.433,5.609-2.876,8.854
	l19.917,115.918l-104.15-54.754c-2.913-1.532-6.394-1.532-9.307,0L98.738,377.09l19.917-115.918
	c0.557-3.245-0.518-6.556-2.876-8.854L31.497,170.16l116.462-16.911c3.257-0.473,6.073-2.519,7.53-5.471l52.053-105.475
	l52.051,105.477c1.457,2.952,4.273,4.998,7.531,5.471l116.462,16.909L299.304,252.318z"/>
<g>
</g>
<g>
</g>
<g>
</g>
<g>
</g>
<g>
</g>
<g>
</g>
<g>
</g>
<g>
</g>
<g>
</g>
<g>
</g>
<g>
</g>
<g>
</g>
<g>
</g>
<g>
</g>
<g>
</g>
</svg>
